<?xml version="1.0" encoding="UTF-8"?> <svg xmlns="http://www.w3.org/2000/svg" viewBox="0 0 661.1 201.2"><defs><style>.a{fill:#e1251b;}</style></defs><title>Fichier 1</title><path class="a" d="M0,172H22.7v2.3h-10v26.3H10V174.3H0Z"></path><path class="a" d="M84.8,172H97.9c4.7,0,8.7,2.3,8.7,7.4s-1.9,6.6-5.6,7.3h0c3.8.5,4.9,3.1,5.1,6.5.1,1.9.1,5.9,1.3,7.3h-3c-.7-1.1-.7-3.2-.8-4.4-.2-4-.6-8.5-5.7-8.3H87.5v12.7H84.8Zm2.7,13.6H97.7c3.3,0,6.2-2.1,6.2-5.6s-2.1-5.7-6.2-5.7H87.5Z"></path><rect class="a" x="172.3" width="143.5" height="28.69"></rect><polygon class="a" points="115 0 115 99.6 28.9 0 0.2 0 0.2 143.4 28.9 143.4 28.9 43.9 115 143.4 115 143.4 115 143.4 143.6 143.4 143.6 0 115 0"></polygon><rect class="a" x="172.3" y="57.4" width="143.5" height="28.69"></rect><rect class="a" x="172.3" y="114.8" width="143.5" height="28.69"></rect><rect class="a" x="344.5" width="143.5" height="28.69"></rect><rect class="a" x="344.5" y="57.4" width="143.5" height="28.69"></rect><rect class="a" x="344.5" y="114.8" width="143.5" height="28.69"></rect><polygon class="a" points="545.3 114.8 545.3 0 516.6 0 516.6 143.5 660.1 143.5 660.1 114.8 545.3 114.8"></polygon><path class="a" d="M169.2,172h2.7v28.6h-2.7Z"></path><path class="a" d="M233.6,172h4l9.9,25.1,9.9-25.1h4v28.6h-2.7V175.9h-.1l-9.8,24.7h-2.6l-9.8-24.7h-.1v24.7h-2.7Z"></path><path class="a" d="M328.8,172h3l11.3,28.6h-3l-3.5-8.9h-13l-3.5,8.9h-2.9Zm-4.4,17.4h11.3l-5.5-14.7Z"></path><path class="a" d="M400.8,172h13.1c4.7,0,8.7,2.3,8.7,7.4s-1.9,6.6-5.6,7.3h0c3.8.5,4.8,3.1,5.1,6.5.1,1.9.1,5.9,1.3,7.3h-3c-.7-1.1-.7-3.2-.8-4.4-.2-4-.6-8.5-5.7-8.3H403.5v12.7h-2.7Zm2.7,13.6h10.2c3.3,0,6.2-2.1,6.2-5.6s-2.1-5.7-6.2-5.7H403.5Z"></path><path class="a" d="M489.7,172h3.1L504,200.6h-2.9l-3.5-8.9h-13l-3.5,8.9h-2.9Zm-4.3,17.4h11.3l-5.6-14.7Z"></path><path class="a" d="M557.6,172h3.1l16.7,24.2h0V172h2.8v28.6h-3.1l-16.7-24.2h-.1v24.2h-2.7Z"></path><path class="a" d="M641.4,191.2c-.1,5.9,4.1,7.7,9.3,7.7,3.1,0,7.6-1.6,7.6-5.8s-3.2-4.6-5.9-5.2l-6.3-1.6c-3.4-.8-6.5-2.4-6.5-6.9,0-2.8,1.8-8,9.9-8,5.6,0,10.6,3,10.6,8.9h-2.8c-.1-4.4-3.7-6.6-7.8-6.6s-7.2,1.4-7.2,5.7c0,2.7,2,3.8,4.4,4.4l6.9,1.7c4.1,1.1,7.5,2.8,7.5,7.5,0,2-.8,8.2-11,8.2-6.8,0-11.8-3-11.4-10Z"></path></svg> 